<svg xmlns="http://www.w3.org/2000/svg" viewBox="0 0 300 100" width="300" height="100">
  <defs>
    <linearGradient id="grad4" x1="0%" y1="100%" x2="100%" y2="0%">
      <stop offset="0%" style="stop-color:#065F46"/>
      <stop offset="100%" style="stop-color:#10B981"/>
    </linearGradient>
  </defs>

  <!-- Icon: Hands in Du'a forming book shape -->
  <g transform="translate(8, 8)">
    <!-- Left hand/page -->
    <path d="M10 70 C5 50 15 30 30 15 L35 20 L35 60 C25 65 15 68 10 70"
          fill="url(#grad4)" opacity="0.9"/>
    <!-- Right hand/page -->
    <path d="M60 70 C65 50 55 30 40 15 L35 20 L35 60 C45 65 55 68 60 70"
          fill="url(#grad4)" opacity="0.7"/>

    <!-- Light/blessing rays from above -->
    <line x1="35" y1="5" x2="35" y2="12" stroke="#34D399" stroke-width="2"/>
    <line x1="25" y1="8" x2="28" y2="14" stroke="#34D399" stroke-width="1.5" opacity="0.7"/>
    <line x1="45" y1="8" x2="42" y2="14" stroke="#34D399" stroke-width="1.5" opacity="0.7"/>

    <!-- Center spine -->
    <line x1="35" y1="20" x2="35" y2="60" stroke="#34D399" stroke-width="2"/>
  </g>

  <!-- Text -->
  <text x="85" y="62" font-family="Georgia, serif" font-size="38" font-weight="600" fill="#10B981">Talbiyah</text>
  <text x="243" y="62" font-family="Arial, sans-serif" font-size="20" fill="#6B7280">.ai</text>
</svg>